<svg width="24" height="24" viewBox="0 0 24 24" fill="none" xmlns="http://www.w3.org/2000/svg">
<g clip-path="url(#paint0_diamond_7096_13259_clip_path)" data-figma-skip-parse="true"><g transform="matrix(0.00487038 0.00784672 -0.00920307 0.00571225 2.8522 15.5415)"><rect x="0" y="0" width="1878.1" height="2298.02" fill="url(#paint0_diamond_7096_13259)" opacity="1" shape-rendering="crispEdges"/><rect x="0" y="0" width="1878.1" height="2298.02" transform="scale(1 -1)" fill="url(#paint0_diamond_7096_13259)" opacity="1" shape-rendering="crispEdges"/><rect x="0" y="0" width="1878.1" height="2298.02" transform="scale(-1 1)" fill="url(#paint0_diamond_7096_13259)" opacity="1" shape-rendering="crispEdges"/><rect x="0" y="0" width="1878.1" height="2298.02" transform="scale(-1)" fill="url(#paint0_diamond_7096_13259)" opacity="1" shape-rendering="crispEdges"/></g></g><path d="M9.13768 21.9403C9.88595 21.8281 10.6721 21.5791 11.4895 21.173C19.4564 15.8032 21.8144 12.7948 17.0879 8.78063C16.7485 8.49242 17.0999 7.83114 17.5053 8.01526C23.4468 10.7139 27.8994 14.8161 11.4895 21.173C12.438 24.4864 11.0848 24.1221 9.13768 21.9403C2.85665 22.8822 -0.75631 14.1841 2.21375 7.7969C1.65723 3.25547 3.6601 -0.256975 11.367 0.684682C11.8066 0.738384 11.7908 1.47167 11.3527 1.53567C6.53311 2.23967 3.62757 4.75645 2.21375 7.7969C2.82456 12.7813 6.51843 19.0053 9.13768 21.9403Z" data-figma-gradient-fill="{&#34;type&#34;:&#34;GRADIENT_DIAMOND&#34;,&#34;stops&#34;:[{&#34;color&#34;:{&#34;r&#34;:0.74509805440902710,&#34;g&#34;:0.74509805440902710,&#34;b&#34;:0.74509805440902710,&#34;a&#34;:1.0},&#34;position&#34;:0.0},{&#34;color&#34;:{&#34;r&#34;:0.57647061347961426,&#34;g&#34;:0.57647061347961426,&#34;b&#34;:0.57647061347961426,&#34;a&#34;:1.0},&#34;position&#34;:1.0}],&#34;stopsVar&#34;:[{&#34;color&#34;:{&#34;r&#34;:0.74509805440902710,&#34;g&#34;:0.74509805440902710,&#34;b&#34;:0.74509805440902710,&#34;a&#34;:1.0},&#34;position&#34;:0.0},{&#34;color&#34;:{&#34;r&#34;:0.57647061347961426,&#34;g&#34;:0.57647061347961426,&#34;b&#34;:0.57647061347961426,&#34;a&#34;:1.0},&#34;position&#34;:1.0}],&#34;transform&#34;:{&#34;m00&#34;:9.7407569885253906,&#34;m01&#34;:-18.406148910522461,&#34;m02&#34;:7.1848921775817871,&#34;m10&#34;:15.693443298339844,&#34;m11&#34;:11.424500465393066,&#34;m12&#34;:1.9824836254119873},&#34;opacity&#34;:1.0,&#34;blendMode&#34;:&#34;NORMAL&#34;,&#34;visible&#34;:true}"/>
<path d="M9.80841 21.0226L11.0175 20.5118C11.1865 20.4403 11.2771 20.2552 11.2296 20.0778L9.07071 12.0128C8.3097 9.16989 8.86124 6.13561 10.574 3.74236L10.9826 3.1714C11.1691 2.91086 10.9567 2.55934 10.642 2.61946C6.97973 3.31918 4.63057 5.48681 3.21575 7.57332C3.11049 7.72856 3.074 7.9194 3.11286 8.10289C4.22736 13.3653 7.59215 18.8051 9.39328 20.9265C9.49516 21.0465 9.66343 21.0839 9.80841 21.0226Z" fill="url(#paint1_linear_7096_13259)"/>
<defs>
<clipPath id="paint0_diamond_7096_13259_clip_path"><path d="M9.13768 21.9403C9.88595 21.8281 10.6721 21.5791 11.4895 21.173C19.4564 15.8032 21.8144 12.7948 17.0879 8.78063C16.7485 8.49242 17.0999 7.83114 17.5053 8.01526C23.4468 10.7139 27.8994 14.8161 11.4895 21.173C12.438 24.4864 11.0848 24.1221 9.13768 21.9403C2.85665 22.8822 -0.75631 14.1841 2.21375 7.7969C1.65723 3.25547 3.6601 -0.256975 11.367 0.684682C11.8066 0.738384 11.7908 1.47167 11.3527 1.53567C6.53311 2.23967 3.62757 4.75645 2.21375 7.7969C2.82456 12.7813 6.51843 19.0053 9.13768 21.9403Z"/></clipPath><linearGradient id="paint0_diamond_7096_13259" x1="0" y1="0" x2="500" y2="500" gradientUnits="userSpaceOnUse">
<stop stop-color="#BEBEBE"/>
<stop offset="1" stop-color="#939393"/>
</linearGradient>
<linearGradient id="paint1_linear_7096_13259" x1="7.16545" y1="2.65705" x2="7.88433" y2="21.1436" gradientUnits="userSpaceOnUse">
<stop stop-color="#EBB90C"/>
<stop offset="1" stop-color="#BC6815"/>
</linearGradient>
</defs>
</svg>
